TITLE "Noël à l'Orgue - Organ Music for Christmas - Michel Chapuis [Valois]"
PERFORMER "Michel Chapuis"
REM GENRE "Classical"
REM DATE "1968"
REM DISCNUMBER 1
REM TOTALDISCS 2
REM DISCID AE0AA00C
REM REPLAYGAIN_ALBUM_GAIN -2.48 dB
REM REPLAYGAIN_ALBUM_PEAK 0.977203
FILE "01 Noël étranger (Noël VIII).flac" WAVE
  TRACK 01 AUDIO
    TITLE "Noël étranger (Noël VIII)"
    PERFORMER "Michel Chapuis"
    SONGWRITER "Louis-Claude Daquin"
    REM COMMENT "Organ (Jean-Georges Koenig, 1967, Church of Saint Georges, Sarre-Union): Michel Chapuis. Recording: Sarre-Union, December 1968."
    REM REPLAYGAIN_TRACK_GAIN -5.57 dB
    REM REPLAYGAIN_TRACK_PEAK 0.910858
    PREGAP 00:00:33
    INDEX 01 00:00:00
  TRACK 02 AUDIO
    TITLE "Noël en dialogue, duo, trio (Noël II)"
    PERFORMER "Michel Chapuis"
    SONGWRITER "Louis-Claude Daquin"
    REM COMMENT "Organ (Jean-Georges Koenig, 1967, Church of Saint Georges, Sarre-Union): Michel Chapuis. Recording: Sarre-Union, December 1968."
    REM REPLAYGAIN_TRACK_GAIN -0.63 dB
    REM REPLAYGAIN_TRACK_PEAK 0.734650
    INDEX 00 03:09:32
FILE "02 Noël en dialogue, duo, trio (Noël II).flac" WAVE
    INDEX 01 00:00:00
  TRACK 03 AUDIO
    TITLE "A minuit fut fait un Réveil"
    PERFORMER "Michel Chapuis"
    SONGWRITER "Jean-François Dandrieu"
    REM COMMENT "Organ (Jean-Georges Koenig, 1967, Church of Saint Georges, Sarre-Union): Michel Chapuis. Recording: Sarre-Union, December 1968."
    REM REPLAYGAIN_TRACK_GAIN -3.45 dB
    REM REPLAYGAIN_TRACK_PEAK 0.826599
    INDEX 00 06:04:72
FILE "03 A minuit fut fait un Réveil.flac" WAVE
    INDEX 01 00:00:00
  TRACK 04 AUDIO
    TITLE "Quoy ma Voisine es tu faché"
    PERFORMER "Michel Chapuis"
    SONGWRITER "Jean-François Dandrieu"
    REM COMMENT "Organ (Jean-Georges Koenig, 1967, Church of Saint Georges, Sarre-Union): Michel Chapuis. Recording: Sarre-Union, December 1968."
    REM REPLAYGAIN_TRACK_GAIN 10.06 dB
    REM REPLAYGAIN_TRACK_PEAK 0.166443
    INDEX 00 01:50:70
FILE "04 Quoy ma Voisine es tu faché.flac" WAVE
    INDEX 01 00:00:00
  TRACK 05 AUDIO
    TITLE "A minuit fut fait un Réveil"
    PERFORMER "Michel Chapuis"
    SONGWRITER "Jean-François Dandrieu"
    REM COMMENT "Organ (Jean-Georges Koenig, 1967, Church of Saint Georges, Sarre-Union): Michel Chapuis. Recording: Sarre-Union, December 1968."
    REM REPLAYGAIN_TRACK_GAIN 3.99 dB
    REM REPLAYGAIN_TRACK_PEAK 0.367218
    INDEX 00 01:10:70
FILE "05 A minuit fut fait un Réveil.flac" WAVE
    INDEX 01 00:00:00
  TRACK 06 AUDIO
    TITLE "Puer nobis nascitur"
    PERFORMER "Michel Chapuis"
    SONGWRITER "Jean-François Dandrieu"
    REM COMMENT "Organ (Jean-Georges Koenig, 1967, Church of Saint Georges, Sarre-Union): Michel Chapuis. Recording: Sarre-Union, December 1968."
    REM REPLAYGAIN_TRACK_GAIN 8.42 dB
    REM REPLAYGAIN_TRACK_PEAK 0.241150
    INDEX 00 01:26:62
FILE "06 Puer nobis nascitur.flac" WAVE
    INDEX 01 00:00:00
  TRACK 07 AUDIO
    TITLE "Allons voir ce divin Gage"
    PERFORMER "Michel Chapuis"
    SONGWRITER "Jean-François Dandrieu"
    REM COMMENT "Organ (Jean-Georges Koenig, 1967, Church of Saint Georges, Sarre-Union): Michel Chapuis. Recording: Sarre-Union, December 1968."
    REM REPLAYGAIN_TRACK_GAIN -5.69 dB
    REM REPLAYGAIN_TRACK_PEAK 0.931702
    INDEX 00 01:29:70
FILE "07 Allons voir ce divin Gage.flac" WAVE
    INDEX 01 00:00:00
  TRACK 08 AUDIO
    TITLE "Chanton de Voix Hautaine"
    PERFORMER "Michel Chapuis"
    SONGWRITER "Jean-François Dandrieu"
    REM COMMENT "Organ (Jean-Georges Koenig, 1967, Church of Saint Georges, Sarre-Union): Michel Chapuis. Recording: Sarre-Union, December 1968."
    REM REPLAYGAIN_TRACK_GAIN 0.05 dB
    REM REPLAYGAIN_TRACK_PEAK 0.818024
    INDEX 00 01:04:65
FILE "08 Chanton de Voix Hautaine.flac" WAVE
    INDEX 01 00:00:00
  TRACK 09 AUDIO
    TITLE "Prélude - A la venue de Noël"
    PERFORMER "Michel Chapuis"
    SONGWRITER "Claude-Bénigne Balbastre"
    REM COMMENT "Organ (Jean-Georges Koenig, 1967, Church of Saint Georges, Sarre-Union): Michel Chapuis. Recording: Sarre-Union, December 1968."
    REM REPLAYGAIN_TRACK_GAIN 0.87 dB
    REM REPLAYGAIN_TRACK_PEAK 0.893372
    INDEX 00 06:19:40
FILE "09 Prélude - A la venue de Noël.flac" WAVE
    INDEX 01 00:00:00
  TRACK 10 AUDIO
    TITLE "Joseph est bien marié"
    PERFORMER "Michel Chapuis"
    SONGWRITER "Claude-Bénigne Balbastre"
    REM COMMENT "Organ (Jean-Georges Koenig, 1967, Church of Saint Georges, Sarre-Union): Michel Chapuis. Recording: Sarre-Union, December 1968."
    REM REPLAYGAIN_TRACK_GAIN -2.41 dB
    REM REPLAYGAIN_TRACK_PEAK 0.859924
    INDEX 00 05:30:05
FILE "10 Joseph est bien marié.flac" WAVE
    INDEX 01 00:00:00
  TRACK 11 AUDIO
    TITLE "Où s'en vont Ces gais bergers"
    PERFORMER "Michel Chapuis"
    SONGWRITER "Claude-Bénigne Balbastre"
    REM COMMENT "Organ (Jean-Georges Koenig, 1967, Church of Saint Georges, Sarre-Union): Michel Chapuis. Recording: Sarre-Union, December 1968."
    REM REPLAYGAIN_TRACK_GAIN -3.54 dB
    REM REPLAYGAIN_TRACK_PEAK 0.977203
    INDEX 00 04:54:65
FILE "11 Où s'en vont Ces gais bergers.flac" WAVE
    INDEX 01 00:00:00
  TRACK 12 AUDIO
    TITLE "Au jô deu de pubelle - Grand déi, ribon ribeine"
    PERFORMER "Michel Chapuis"
    SONGWRITER "Claude-Bénigne Balbastre"
    REM COMMENT "Organ (Jean-Georges Koenig, 1967, Church of Saint Georges, Sarre-Union): Michel Chapuis. Recording: Sarre-Union, December 1968."
    REM REPLAYGAIN_TRACK_GAIN 0.55 dB
    REM REPLAYGAIN_TRACK_PEAK 0.605896
    INDEX 00 05:15:08
FILE "12 Au jô deu de pubelle - Grand déi, ribon ribeine.flac" WAVE
    INDEX 01 00:00:00
